<svg id="Layer_1" data-name="Layer 1" xmlns="http://www.w3.org/2000/svg" viewBox="0 0 622.05 622.05"><defs><style>.cls-1,.cls-3{fill:#168dd8;}.cls-1,.cls-2{stroke:#000;stroke-miterlimit:10;}.cls-2{fill:#fff;}</style></defs><title>php</title><circle class="cls-1" cx="311.03" cy="311.03" r="310.53"/><ellipse class="cls-2" cx="309.03" cy="320.94" rx="294.39" ry="146.08"/><path class="cls-3" d="M189.1,276.3H156.4L143,345.44h30.55s37.2,1,38.91-44.8C214.19,274.33,189.1,276.3,189.1,276.3Z"/><path class="cls-3" d="M468.25,276.3h-32.7l-13.43,69.14h30.55s37.2,1,38.91-44.8C493.41,274.33,468.25,276.3,468.25,276.3Z"/><path class="cls-3" d="M311,160.2C139.54,160.2.5,233.46.5,323.76S139.54,487.33,311,487.33s310.53-73.2,310.53-163.56S482.51,160.2,311,160.2ZM172,371.1l-33.08-.25-9.32,43.47H94.16L126.1,250.76s45.37.57,75.16,0,59.06,20.47,45.37,68.13C230.16,375.79,172,371.1,172,371.1Zm159.26,0s8.49-38,12.23-64.39c1.52-10.84,8.24-29.28-9.51-29.28-14.83-.06-37-.13-37-.13l-18.69,93.85h-35l32.7-164.33h35.87l-9,43.92h37s49.05-3.87,43.22,36.63-16.73,83.72-16.73,83.72h-35Zm194.49-52.16c-16.35,56.85-74.59,52.16-74.59,52.16l-33.08-.25-9.32,43.47H373.32l31.94-163.56s45.37.57,75.16,0S539.42,271.23,525.73,318.95Z"/><circle class="cls-2" cx="336.51" cy="220.9"/></svg>